<?xml version="1.0" encoding="UTF-8"?>
<svg width="20px" height="20px" viewBox="0 0 20 20" version="1.1" xmlns="http://www.w3.org/2000/svg" xmlns:xlink="http://www.w3.org/1999/xlink">
    <title>形状结合</title>
    <g id="04.--BTFSscan-" stroke="none" stroke-width="1" fill="none" fill-rule="evenodd">
        <g id="home_light备份" transform="translate(-979.000000, -1104.000000)" fill="#000000" fill-rule="nonzero">
            <g id="编组-31" transform="translate(270.000000, 1027.000000)">
                <g id="编组-24备份" transform="translate(0.000000, 44.000000)">
                    <g id="编组-24" transform="translate(689.000000, 30.000000)">
                        <g id="编组-8" transform="translate(11.000000, 0.000000)">
                            <g id="编组-6" transform="translate(0.000000, 3.000000)">
                                <g id="bittorrent-white" transform="translate(9.000000, 0.000000)">
                                    <path d="M5.31964351,1.14789057 C7.97488408,-0.250330382 11.1202109,-0.377651681 13.8800913,0.801367816 C16.9226627,2.07351878 19.1366731,4.76778833 19.7920407,7.9957266 C20.0658202,9.32400297 20.0693106,10.6936874 19.8023045,12.0233377 C19.5269198,13.2990051 19.0152105,14.5120535 18.2935257,15.6000204 C17.2025564,17.2016097 15.6744096,18.4571459 13.8903551,19.2176965 C12.0255346,19.9959003 9.97021195,20.1993391 7.98866944,19.8018538 C6.71108177,19.526883 5.4962074,19.0159429 4.40660287,18.2953428 C2.80260272,17.2060132 1.54517655,15.6801633 0.783481088,13.8987902 C0.00410585977,12.0367726 -0.199639163,9.98453919 0.198444429,8.00597498 C0.782743768,5.06594666 2.66440293,2.54611153 5.31964351,1.14789057 Z M10.4930369,3.85538338 L10.2261781,3.85538338 C9.18414298,3.87792372 8.15754534,4.1115246 7.20862056,4.54202444 C5.76914269,5.22797654 4.58365342,6.35070513 3.82156621,7.74976563 C3.35395561,8.6120786 3.06756487,9.56062978 2.97993451,10.5373234 L2.94914311,10.9882519 L2.94914311,11.2547096 C2.97171739,12.2951785 3.20566991,13.3202332 3.63681779,14.2677317 C3.89341281,14.8313923 4.35528386,15.6615106 5.04295853,16.2866614 C6.44638904,17.3916171 8.18234704,17.9910669 9.96958304,17.9879041 L10.3903989,17.9879041 L10.5135645,17.9776432 L10.5238283,17.9776432 L10.6367301,17.9673948 L10.6675215,17.9673948 L10.7598957,17.9571465 L10.7906871,17.9571465 L10.8933251,17.9468981 L10.9138527,17.9468981 L11.0370184,17.9366497 L11.1499202,17.916153 L11.1704478,17.916153 L11.262822,17.9059046 L11.2833496,17.9059046 L11.3962514,17.8854078 L11.6323188,17.834166 L11.6528464,17.834166 L11.7554844,17.8136692 L11.7657482,17.8136692 L12.0018157,17.752179 C11.0164908,17.7829241 10.2159143,17.6496952 9.71298802,17.5369631 C8.57109182,17.3146386 7.50034631,16.8187563 6.5927925,16.0919423 C5.13391014,14.8800029 4.29740401,13.0778218 4.31422866,11.182971 C4.32169582,9.78702637 4.81929311,8.43791708 5.7203694,7.37057577 C6.85263715,6.03566627 8.50532006,5.25163513 10.2569695,5.21841717 L10.4930369,5.21841717 L10.4930369,3.85538338 Z M8.65581651,5.90505823 C6.79801161,6.50603712 5.37698723,8.01384783 4.88900151,9.90192423 C4.3663233,11.8309599 4.8786607,13.8927313 6.24382325,15.3540594 C6.76236813,15.8968491 7.36979096,16.3473992 8.03998845,16.686348 C8.86160508,17.0741457 9.7430764,17.3201709 10.6469939,17.4139826 C11.262822,17.4959696 12.0839261,17.5164664 12.5663247,17.5164664 L13.3874288,17.1987668 C13.582441,17.1065314 13.7774532,17.014296 13.9724655,16.9015639 L14.5267107,16.5531192 L14.6088211,16.4916289 C13.479803,16.6965964 13.1924166,16.686348 12.3918401,16.6658513 C11.9197052,16.6556029 11.3346686,16.5838643 10.8830613,16.5018773 C8.76871833,16.1226874 6.95202554,14.8313923 6.28487845,12.8842012 C5.69760329,11.2186816 6.15015905,9.36402359 7.43887908,8.15489125 C8.7275991,6.94575891 10.6095885,6.6100466 12.2378831,7.29883716 L12.8126559,6.07928059 L12.2892021,5.88456149 C11.1045236,5.5198818 9.83629259,5.52703617 8.65581651,5.90505823 Z M8.96373053,7.64728188 C7.41356726,8.28915992 6.40718852,9.80456288 6.41821667,11.4801739 C6.42065558,12.052559 6.54302633,12.6181095 6.77754092,13.1404105 C6.99308074,13.6118357 7.29073098,14.0525158 7.67049161,14.4624508 C8.3769353,15.2027803 9.25447303,15.7587746 10.2261781,16.0816939 C11.7789545,16.5075056 13.410118,16.5636681 14.9885818,16.245668 C15.4438392,15.8867809 15.8570136,15.4776654 16.2202379,15.0261114 L14.9167352,15.1490919 C14.5985573,15.1695886 14.1469501,15.2003338 13.63376,15.2003338 C12.7202817,15.2003338 11.6015274,15.1183468 10.6469939,14.8006472 C9.16900657,14.3087252 7.7731296,13.0481752 7.77312962,11.4904223 C7.77311221,10.2128871 8.63674271,9.09635722 9.87466605,8.77348704 C11.1125894,8.45061686 12.4127565,9.0027937 13.0384596,10.1171401 L14.2598519,9.51248601 C13.2559318,7.60200112 10.9458969,6.78844601 8.96373053,7.64728188 Z" id="形状结合"></path>
                                </g>
                            </g>
                        </g>
                    </g>
                </g>
            </g>
        </g>
    </g>
</svg>