<?xml version="1.0" encoding="UTF-8"?>
<svg width="173px" height="186px" viewBox="0 0 173 186" version="1.1" xmlns="http://www.w3.org/2000/svg" xmlns:xlink="http://www.w3.org/1999/xlink">
    <title>形状结合备份 4</title>
    <defs>
        <linearGradient x1="50%" y1="0%" x2="50%" y2="100%" id="linearGradient-1">
            <stop stop-color="#BFBFBF" stop-opacity="0.3" offset="0%"></stop>
            <stop stop-color="#EDEDED" stop-opacity="0.1" offset="100%"></stop>
        </linearGradient>
    </defs>
    <g id="03.-Dashboard新版" stroke="none" stroke-width="1" fill="none" fill-rule="evenodd" opacity="0.701623826">
        <g id="Dashboard" transform="translate(-660.000000, -1048.000000)" fill="url(#linearGradient-1)" fill-rule="nonzero">
            <g id="编组-12" transform="translate(660.000000, 1048.000000)">
                <path d="M105.865901,0 L105.865901,18.8070734 L102.584383,18.8070734 C78.2351143,19.2654132 55.2615562,30.0834364 39.5221675,48.5024522 C26.9965171,63.2295753 20.0795337,81.8445191 19.9757344,101.105695 C19.741859,127.250754 31.3699347,152.117159 51.6495166,168.83944 C64.2652096,178.867984 79.1493921,185.710143 95.0226237,188.777766 C102.013684,190.333238 113.14231,192.171524 126.83908,191.747304 L126.83908,191.747304 L123.557562,192.595743 L123.414888,192.595743 L121.988141,192.878557 L121.702791,192.878557 L118.421274,193.585589 L116.851852,193.868403 L116.566503,193.868403 L115.28243,194.009809 L114.997081,194.009809 L113.427659,194.292622 L111.715563,194.434029 L111.430214,194.434029 L110.003467,194.575435 L109.575443,194.575435 L108.29137,194.716842 L107.863346,194.716842 L106.293925,194.858248 L106.15125,194.858248 L104.439154,194.999828 L98.589491,194.999828 C73.745542,195.043468 49.6143965,186.772289 30.1056377,171.526165 C20.5464332,162.900364 14.1260718,151.446433 10.5592046,143.669071 C4.565919,130.595533 1.31379975,116.45188 1,102.095541 L1,102.095541 L1,98.4189702 L1.428024,92.1970813 C2.64615314,78.72071 6.62720371,65.6326474 13.1273491,53.7344953 C23.7209449,34.4303272 40.2001536,18.9389731 60.2099982,9.47423973 C73.4007793,3.53422405 87.6712726,0.311010533 102.156358,0 L102.156358,0 L105.865901,0 Z M80.3032205,28.2345266 C96.6608988,23.0111953 114.234584,22.9123395 130.650494,27.9513123 L130.650494,27.9513123 L137.903914,30.6418493 L129.939374,47.493109 C107.376343,37.9757246 81.297901,42.6144396 63.440303,59.3216623 C45.5827049,76.028885 39.3117082,101.655678 47.4494912,124.669045 C56.6940472,151.574417 81.8676839,169.416927 111.165815,174.656394 C117.423668,175.789252 125.530432,176.780503 132.072733,176.92211 C143.1662,177.205324 147.148471,177.346931 162.793103,174.514787 L162.793103,174.514787 L161.655312,175.36443 L153.975219,180.179076 C151.272965,181.736756 148.57071,183.011221 145.868455,184.285686 L145.868455,184.285686 L134.49054,188.675509 C127.806015,188.675509 116.4281,188.392295 107.894664,187.259437 C95.3692161,185.963191 83.1548017,182.56373 71.7697845,177.205324 C62.4829595,172.521889 54.0659933,166.296398 46.8805955,158.796385 C27.963745,138.604441 20.8643632,110.115852 28.107036,83.4613433 C34.8689802,57.3727906 54.5598996,36.5385705 80.3032205,28.2345266 Z M84.7947338,52.1532794 C112.166512,40.2715156 144.065833,51.5268323 157.928987,77.9578782 L157.928987,77.9578782 L141.062755,86.3231051 C132.422408,70.9064218 114.468372,63.2672033 97.3738619,67.7340257 C80.279352,72.200848 68.3534598,87.6477388 68.3537003,105.322095 C68.3537,126.873189 87.629395,144.312561 108.038954,151.118169 C121.220128,155.513458 136.66903,156.647726 149.283271,156.647726 C156.369924,156.647726 162.606178,156.222375 166.999903,155.938808 L166.999903,155.938808 L185,154.237406 C179.984228,160.484535 174.278693,166.144538 167.992034,171.109644 C146.194994,175.509091 123.670222,174.732098 102.227899,168.841108 C88.8096033,164.373604 76.6916658,156.681573 66.9363697,146.439313 C61.692247,140.767973 57.5819884,134.671282 54.6055944,128.14924 C51.3671775,120.923346 49.6773572,113.099107 49.6436782,105.180312 C49.4913902,81.9986833 63.3884959,61.0334899 84.7947338,52.1532794 Z" id="形状结合"></path>
            </g>
        </g>
    </g>
</svg>