<?xml version="1.0" encoding="UTF-8"?>
<svg width="14px" height="14px" viewBox="0 0 14 14" version="1.1" xmlns="http://www.w3.org/2000/svg" xmlns:xlink="http://www.w3.org/1999/xlink">
    <title>copy备份</title>
    <g id="03.-Dashboard新版" stroke="none" stroke-width="1" fill="none" fill-rule="evenodd">
        <g id="Set_" transform="translate(-441.000000, -67.000000)" fill="#9DA2AC">
            <g id="编组-3备份-4" transform="translate(435.000000, 61.000000)">
                <g id="copy备份" transform="translate(6.000000, 6.000000)">
                    <path d="M8.3125,4.375 C9.03737374,4.375 9.625,4.96262626 9.625,5.6875 L9.625,12.6875 C9.625,13.4123737 9.03737374,14 8.3125,14 L1.3125,14 C0.587626266,14 0,13.4123737 0,12.6875 L0,5.6875 C0,4.96262626 0.587626266,4.375 1.3125,4.375 L8.3125,4.375 Z M8.3125,5.6875 L1.3125,5.6875 L1.3125,12.6875 L8.3125,12.6875 L8.3125,5.6875 Z M7,9.625 L7,10.9375 L2.625,10.9375 L2.625,9.625 L7,9.625 Z M12.6875,0 C13.4123737,0 14,0.587626266 14,1.3125 L14,8.3125 C14,9.03737374 13.4123737,9.625 12.6875,9.625 L10.5,9.625 L10.5,8.3125 L12.6875,8.3125 L12.6875,1.3125 L5.6875,1.3125 L5.6875,3.5 L4.375,3.5 L4.375,1.3125 C4.375,0.587626266 4.96262626,0 5.6875,0 L12.6875,0 Z M7,7.43749999 L7,8.74999999 L2.625,8.74999999 L2.625,7.43749999 L7,7.43749999 Z" id="形状"></path>
                </g>
            </g>
        </g>
    </g>
</svg>
