<?xml version="1.0" encoding="UTF-8"?>
<svg width="16px" height="16px" viewBox="0 0 16 16" version="1.1" xmlns="http://www.w3.org/2000/svg" xmlns:xlink="http://www.w3.org/1999/xlink">
    <title>形状结合备份 2</title>
    <g id="页面-2" stroke="none" stroke-width="1" fill="none" fill-rule="evenodd">
        <g id="Marketplace" transform="translate(-427.000000, -288.000000)" fill="#ffffff" fill-rule="nonzero">
            <path d="M433.666667,291.500014 C433.666667,290.395468 432.696591,289.500014 431.5,289.500014 C430.303409,289.500014 429.333314,290.39545 429.333314,291.500014 L429.334,291.807 L427.709,291.807 L427.708319,291.500014 C427.708319,289.567009 429.405912,288 431.5,288 C433.594088,288 435.291681,289.567009 435.291681,291.500014 L435.291681,293.5 L441.916677,293.5 C442.515001,293.5 443,293.947705 443,294.5 L443,303 C443,303.552309 442.514982,304 441.916677,304 L431.083323,304 C430.484999,304 430,303.552309 430,303 L430,294.5 C430,293.947705 430.484999,293.5 431.083323,293.5 L433.666667,293.5 Z M436.5,296 C435.602522,296 434.875005,296.671555 434.875005,297.5 C434.875005,298.152144 435.328586,298.7015 435.958328,298.908156 L435.958328,301 L437.041672,301 L437.041672,298.908156 C437.671394,298.7015 438.124995,298.152162 438.124995,297.5 C438.124995,296.671555 437.397478,296 436.5,296 Z" id="形状结合备份-2"></path>
        </g>
    </g>
</svg>
