<?xml version="1.0" encoding="UTF-8"?>
<svg width="41px" height="41px" viewBox="0 0 41 41" version="1.1" xmlns="http://www.w3.org/2000/svg" xmlns:xlink="http://www.w3.org/1999/xlink">
    <title>形状结合 2</title>
    <g id="03.-Dashboard" stroke="none" stroke-width="1" fill="none" fill-rule="evenodd">
        <g id="Welcome-to-BTFS-2.0" transform="translate(-1302.000000, -54.000000)" fill="#5A607F" fill-rule="nonzero">
            <path d="M1322.25,54.25 C1333.29569,54.25 1342.25,63.204305 1342.25,74.25 C1342.25,85.295695 1333.29569,94.25 1322.25,94.25 C1311.20431,94.25 1302.25,85.295695 1302.25,74.25 C1302.25,63.204305 1311.20431,54.25 1322.25,54.25 Z M1322.25,55.75 C1312.03273,55.75 1303.75,64.0327321 1303.75,74.25 C1303.75,84.4672679 1312.03273,92.75 1322.25,92.75 C1332.46727,92.75 1340.75,84.4672679 1340.75,74.25 C1340.75,64.0327321 1332.46727,55.75 1322.25,55.75 Z M1320.691,67.1 L1320.691,69.76 L1315.86567,69.76 L1315.76567,69.86 L1315.76567,72.0142857 L1315.86567,72.1142857 L1320.243,72.114 L1320.243,74.737 L1315.86567,74.7371429 L1315.76567,74.8371429 L1315.76567,77.14 L1315.86567,77.24 L1320.78,77.239 L1320.78,79.9 L1313.1,79.9 L1313.1,67.1 L1320.691,67.1 Z M1327.65075,70.5542857 L1327.8381,70.5590601 L1328.02171,70.5732986 C1329.71736,70.7499612 1330.9,72.1466612 1330.9,74.2985714 L1330.9,74.2985714 L1330.9,79.9 L1328.413,79.9 L1328.41343,74.7071429 L1328.40794,74.5324672 C1328.34233,73.5083058 1327.69427,72.9171429 1326.75522,72.9171429 L1326.75522,72.9171429 L1326.60053,72.9219405 L1326.44436,72.9373051 C1325.52815,73.0610702 1324.98955,73.7517592 1324.98955,74.93 L1324.98955,74.93 L1324.989,79.9 L1322.502,79.9 L1322.502,70.814 L1324.989,70.814 L1324.98955,71.5871429 L1325.17133,71.6446952 L1325.2732,71.5112971 C1325.77316,70.9066265 1326.61383,70.5542857 1327.65075,70.5542857 L1327.65075,70.5542857 Z" id="形状结合"></path>
        </g>
    </g>
</svg>