<?xml version="1.0" encoding="UTF-8"?>
<svg width="13px" height="16px" viewBox="0 0 13 16" version="1.1" xmlns="http://www.w3.org/2000/svg" xmlns:xlink="http://www.w3.org/1999/xlink">
    <title>形状备份</title>
    <g id="页面-2" stroke="none" stroke-width="1" fill="none" fill-rule="evenodd">
        <g id="Marketplace" transform="translate(-91.000000, -288.000000)" fill="#333333" fill-rule="nonzero">
            <path d="M102.916677,304 L92.0833235,304 C91.4849985,304 91,303.552309 91,303 L91,294.5 C91,293.947705 91.4849985,293.5 92.0833235,293.5 L93.7083186,293.5 L93.7083186,291.500014 C93.7083186,289.567009 95.4059119,288 97.5,288 C99.5940881,288 101.291681,289.567009 101.291681,291.500014 L101.291681,293.5 L102.916677,293.5 C103.515001,293.5 104,293.947705 104,294.5 L104,303 C104,303.552309 103.514982,304 102.916677,304 Z M96.9583284,301 L98.0416716,301 L98.0416716,298.908156 C98.6713941,298.7015 99.1249951,298.152162 99.1249951,297.5 C99.1249951,296.671555 98.3974776,296 97.5,296 C96.6025224,296 95.8750049,296.671555 95.8750049,297.5 C95.8750049,298.152144 96.3285862,298.7015 96.9583284,298.908156 L96.9583284,301 Z M97.5,289.500014 C96.3034091,289.500014 95.3333333,290.395468 95.3333333,291.500014 L95.3333333,293.499995 L99.6666864,293.499995 L99.6666864,291.500014 C99.6666864,290.39545 98.6965909,289.500014 97.5,289.500014 Z" id="形状备份"></path>
        </g>
    </g>
</svg>
