<?xml version="1.0" encoding="UTF-8"?>
<svg width="24px" height="24px" viewBox="0 0 24 24" version="1.1" xmlns="http://www.w3.org/2000/svg" xmlns:xlink="http://www.w3.org/1999/xlink">
    <title>形状结合</title>
    <g id="03.-Dashboard" stroke="none" stroke-width="1" fill="none" fill-rule="evenodd">
        <g id="Files备份" transform="translate(-1354.000000, -650.000000)" fill="#3257F6">
            <path d="M1366,650 C1372.6,650 1378,655.4 1378,662 C1378,668.6 1372.6,674 1366,674 C1359.4,674 1354,668.6 1354,662 C1354,655.4 1359.4,650 1366,650 Z M1370.8,660.752923 C1370.35446,661.010155 1370.08,661.485538 1370.08,662 C1370.08,662.514462 1370.35446,662.989845 1370.8,663.247077 C1371.24554,663.504308 1371.79446,663.504308 1372.24,663.247077 C1372.68554,662.989845 1372.96,662.514462 1372.96,662 C1372.96,661.485538 1372.68554,661.010155 1372.24,660.752923 C1371.79446,660.495692 1371.24554,660.495692 1370.8,660.752923 Z M1359.76,660.752923 C1359.31446,661.010155 1359.04,661.485538 1359.04,662 C1359.04,662.79529 1359.68471,663.44 1360.48,663.44 C1361.27529,663.44 1361.92,662.79529 1361.92,662 C1361.92,661.485538 1361.64554,661.010155 1361.2,660.752923 C1360.75446,660.495692 1360.20554,660.495692 1359.76,660.752923 Z M1365.28,660.752923 C1364.83446,661.010155 1364.56,661.485538 1364.56,662 C1364.56,662.79529 1365.20471,663.44 1366,663.44 C1366.79529,663.44 1367.44,662.79529 1367.44,662 C1367.44,661.485538 1367.16554,661.010155 1366.72,660.752923 C1366.27446,660.495692 1365.72554,660.495692 1365.28,660.752923 Z" id="形状结合"></path>
        </g>
    </g>
</svg>