<?xml version="1.0" encoding="UTF-8"?>
<svg width="24px" height="24px" viewBox="0 0 24 24" version="1.1" xmlns="http://www.w3.org/2000/svg" xmlns:xlink="http://www.w3.org/1999/xlink">
    <title>形状结合备份</title>
    <g id="03.-Dashboard" stroke="none" stroke-width="1" fill="none" fill-rule="evenodd">
        <g id="Files备份" transform="translate(-1354.000000, -707.000000)" fill="#A1A7C4" fill-rule="nonzero">
            <path d="M1366,707 C1372.6,707 1378,712.4 1378,719 C1378,725.6 1372.6,731 1366,731 C1359.4,731 1354,725.6 1354,719 C1354,712.4 1359.4,707 1366,707 Z M1366,708.8 C1360.36,708.8 1355.8,713.36 1355.8,719 C1355.8,724.64 1360.36,729.2 1366,729.2 C1371.64,729.2 1376.2,724.64 1376.2,719 C1376.2,713.36 1371.64,708.8 1366,708.8 Z M1370.8,717.752923 C1371.24554,717.495692 1371.79446,717.495692 1372.24,717.752923 C1372.68554,718.010155 1372.96,718.485538 1372.96,719 C1372.96,719.514462 1372.68554,719.989845 1372.24,720.247077 C1371.79446,720.504308 1371.24554,720.504308 1370.8,720.247077 C1370.35446,719.989845 1370.08,719.514462 1370.08,719 C1370.08,718.485538 1370.35446,718.010155 1370.8,717.752923 Z M1359.76,717.752923 C1360.20554,717.495692 1360.75446,717.495692 1361.2,717.752923 C1361.64554,718.010155 1361.92,718.485538 1361.92,719 C1361.92,719.79529 1361.27529,720.44 1360.48,720.44 C1359.68471,720.44 1359.04,719.79529 1359.04,719 C1359.04,718.485538 1359.31446,718.010155 1359.76,717.752923 Z M1365.28,717.752923 C1365.72554,717.495692 1366.27446,717.495692 1366.72,717.752923 C1367.16554,718.010155 1367.44,718.485538 1367.44,719 C1367.44,719.79529 1366.79529,720.44 1366,720.44 C1365.20471,720.44 1364.56,719.79529 1364.56,719 C1364.56,718.485538 1364.83446,718.010155 1365.28,717.752923 Z" id="形状结合备份"></path>
        </g>
    </g>
</svg>