<?xml version="1.0" encoding="UTF-8"?>
<svg width="14px" height="18px" viewBox="0 0 14 18" version="1.1" xmlns="http://www.w3.org/2000/svg" xmlns:xlink="http://www.w3.org/1999/xlink">
    <title>suoding</title>
    <g id="03.-Dashboard" stroke="none" stroke-width="1" fill="none" fill-rule="evenodd">
        <g id="Set1备份" transform="translate(-129.000000, -850.000000)" fill="#5A607F" fill-rule="nonzero">
            <g id="编组-7备份-2" transform="translate(116.000000, 840.000000)">
                <g id="suoding" transform="translate(13.000000, 10.000000)">
                    <path d="M13.6350646,8.72288608 C13.3917177,8.47454583 13.1016322,8.35031381 12.7647594,8.35031381 L11.6417693,8.35031381 L9.37699172,8.35031381 L4.69788242,8.35031381 L2.33955466,8.35031381 L1.2165888,8.35031381 C0.879716015,8.35031381 0.592662276,8.47454583 0.355645879,8.72288608 C0.118556717,8.97135013 0,9.26750622 0,9.6114286 L0,15.6688357 C0,15.9872282 0.0530691663,16.2866777 0.159110486,16.5668621 C0.265151805,16.8471456 0.414899979,17.0923906 0.608306535,17.3025475 C0.801713091,17.5127539 1.03567339,17.6815827 1.31011472,17.80891 C1.58465306,17.9363364 1.89035861,18 2.22725564,18 L11.6792184,18 C12.0160912,18 12.3248529,17.9363364 12.6056489,17.80891 C12.8864207,17.6815827 13.1296948,17.50639 13.3356167,17.2834558 C13.5414416,17.0605464 13.7036567,16.7993298 13.8222377,16.4999794 C13.9407944,16.2006537 14,15.8789678 14,15.5350206 L14,9.61142862 C14,9.26750622 13.8783387,8.97135015 13.6350646,8.72288608 Z M7.43659576,13.1056741 L7.43659576,15.4092781 C7.43659576,15.6554393 7.24112756,15.854998 7.00001212,15.854998 C6.75889669,15.854998 6.56342849,15.6554393 6.56342849,15.4092781 L6.56342851,13.1056741 C6.04117747,12.9210223 5.66600662,12.4147836 5.66600662,11.8187571 C5.66600662,11.0665801 6.26325302,10.4568354 7.00001215,10.4568354 C7.73677127,10.4568354 8.33401768,11.0665801 8.33401768,11.8187571 C8.33401768,12.4147588 7.9588468,12.9210223 7.43659576,13.1056741 Z" id="形状"></path>
                    <path d="M4.69788242,4.92988445 C4.69788242,4.12736584 4.90370733,3.50632953 5.31555124,3.06689927 C5.72729811,2.62736998 6.27002008,2.4076796 6.94388691,2.4076796 C7.69253081,2.4076796 8.28521733,2.62739473 8.72197075,3.06689927 C9.1586514,3.50632953 9.37699172,4.12736584 9.37699172,4.92988445 L9.37699172,7.20384808 L11.6417693,7.20384808 L11.6417693,4.39487204 C11.6417693,3.78344345 11.513826,3.21339252 11.258085,2.68474402 C11.0022228,2.15599647 10.659068,1.69103636 10.2286451,1.28983897 C9.79812512,0.888517761 9.30524647,0.573220511 8.75003337,0.343922395 C8.19479603,0.114649058 7.61768097,0 7.01878524,0 C6.34491842,0 5.72419352,0.114649058 5.156465,0.343922395 C4.58873651,0.573220486 4.09585785,0.888517761 3.67782901,1.28983897 C3.25982444,1.69103636 2.93231395,2.15602122 2.69522479,2.68474402 C2.45811138,3.21339252 2.33957891,3.78341869 2.33957891,4.39487204 L2.33957891,7.20384808 L4.69790667,7.20384808 L4.69790667,4.92988442 L4.69788242,4.92988445 Z" id="路径"></path>
                </g>
            </g>
        </g>
    </g>
</svg>