<?xml version="1.0" encoding="UTF-8"?>
<svg width="17px" height="16px" viewBox="0 0 17 16" version="1.1" xmlns="http://www.w3.org/2000/svg" xmlns:xlink="http://www.w3.org/1999/xlink">
    <title>zaixian-xian备份 2</title>
    <g id="03.-Dashboard新版" stroke="none" stroke-width="1" fill="none" fill-rule="evenodd">
        <g id="Dashboard" transform="translate(-604.000000, -92.000000)" fill="#3257F6">
            <g id="编组-5" transform="translate(560.000000, 72.000000)">
                <g id="icon" transform="translate(24.000000, 0.000000)">
                    <g id="编组-2" transform="translate(20.000000, 20.000000)">
                        <path d="M13.9090909,14.5727029 L13.9090909,16 L3.09090909,16 L3.09090909,14.5727029 L13.9090909,14.5727029 Z M16.2975207,0 C16.6838843,0 17,0.321141841 17,0.713648517 L17,12.9420161 C17,13.3345228 16.6838843,13.6520963 16.2975207,13.6520963 L0.702479347,13.6520963 C0.316115705,13.6520963 0,13.3309545 0,12.9384478 L0,0.713648517 C0,0.321141821 0.316115705,0 0.702479347,0 L16.2975207,0 Z M15.5950413,1.42729705 L1.40495867,1.42729705 L1.40495867,12.2247993 L15.5950413,12.2247993 L15.5950413,1.42729705 Z M12.086157,4.44959857 L12.9818182,5.54861731 L8.31033057,9.47368421 C8.1803719,9.58786798 8.02231404,9.64139162 7.8642562,9.64139162 C7.68512397,9.64139162 7.50599173,9.57002677 7.36900827,9.43443353 L4.67499999,6.70472792 L5.66549588,5.69491526 L7.90640496,7.96431758 L12.086157,4.44959857 Z" id="形状结合"></path>
                    </g>
                </g>
            </g>
        </g>
    </g>
</svg>