<?xml version="1.0" encoding="UTF-8"?>
<svg width="16px" height="16px" viewBox="0 0 16 16" version="1.1" xmlns="http://www.w3.org/2000/svg" xmlns:xlink="http://www.w3.org/1999/xlink">
    <title>icon</title>
    <g id="03.-Dashboard新版" stroke="none" stroke-width="1" fill="none" fill-rule="evenodd" opacity="0.900000036">
        <g id="Dashboard" transform="translate(-232.000000, -92.000000)">
            <g id="编组-10备份-2" transform="translate(232.000000, 92.000000)">
                <g id="icon" transform="translate(8.000000, 8.000000) rotate(-90.000000) translate(-8.000000, -8.000000) ">
                    <rect id="BG" x="0" y="0" width="16" height="16"></rect>
                    <path d="M4.19526215,6.20920944 C3.9549395,6.46669799 3.93645315,6.87186303 4.13980307,7.15207103 L4.19526215,7.21936199 L7.52859548,10.7907906 C7.76891812,11.0482791 8.14707216,11.0680859 8.40859963,10.850211 L8.47140452,10.7907906 L11.8047379,7.21936199 C12.0650874,6.94041606 12.0650874,6.48815536 11.8047379,6.20920944 C11.5644152,5.9517209 11.1862612,5.93191409 10.9247337,6.14978901 L10.8619288,6.20920944 L8,9.275 L5.13807119,6.20920944 C4.89774855,5.9517209 4.51959451,5.93191409 4.25806704,6.14978901 L4.19526215,6.20920944 Z" id="color" fill="#7E84A3"></path>
                </g>
            </g>
        </g>
    </g>
</svg>