<?xml version="1.0" encoding="UTF-8"?>
<svg width="34px" height="34px" viewBox="0 0 34 34" version="1.1" xmlns="http://www.w3.org/2000/svg" xmlns:xlink="http://www.w3.org/1999/xlink">
    <title>trx</title>
    <g id="04.--BTFSscan-" stroke="none" stroke-width="1" fill="none" fill-rule="evenodd">
        <g id="home_light备份" transform="translate(-1253.000000, -540.000000)">
            <g id="编组-47" transform="translate(960.000000, 520.000000)">
                <g id="编组-28备份" transform="translate(224.000000, 20.000000)">
                    <g id="trx" transform="translate(69.000000, 0.000000)">
                        <path d="M17,0 C26.3888407,0 34,7.61115925 34,17 C34,26.3888407 26.3888407,34 17,34 C7.61115925,34 0,26.3888407 0,17 C0,7.61115925 7.61115925,0 17,0 Z M6.8,6.8 L16.2669949,29.4666667 L29.4666667,14.1811966 L24.7352616,9.93846153 L6.8,6.8 Z M9.56463591,9.92554605 L17.3814974,16.1133523 L16.28,26.149 L9.56463591,9.92554605 Z M27.0158769,15.2157265 L17.5990974,26.0621463 L18.7066256,16.5201899 L27.0158769,15.2157265 Z M24.4521026,11.4921937 L27.1581539,13.8608927 L19.953641,15.0245774 L24.4521026,11.4921937 Z M10.5494154,8.77477683 L22.9777231,10.8735423 L18.1235692,14.7882241 L10.5494154,8.77477683 Z" id="形状结合" fill="#CA2832"></path>
                        <g id="TRX-2备份" transform="translate(6.800000, 6.800000)" fill="#FFFFFF" fill-rule="nonzero">
                            <path d="M17.9352616,3.13846153 L0,0 L9.46699489,22.6666667 L22.6666667,7.38119658 L17.9352616,3.13846153 L17.9352616,3.13846153 Z M20.3581539,7.06089268 L13.153641,8.22457741 L17.6521026,4.69219374 L20.3581539,7.06089268 Z M16.1777231,4.07354226 L11.3235692,7.98822412 L3.74941538,1.97477683 L16.1777231,4.07354226 L16.1777231,4.07354226 Z M9.48233845,19.3551377 L2.76463591,3.12554605 L10.5814974,9.31335234 L9.47954871,19.3551377 L9.48233845,19.3551377 Z M10.7990974,19.2621463 L11.9066256,9.72018992 L20.2158769,8.4157265 L10.7990974,19.2621463 Z" id="形状"></path>
                        </g>
                    </g>
                </g>
            </g>
        </g>
    </g>
</svg>