<?xml version="1.0" encoding="UTF-8"?>
<svg width="36px" height="36px" viewBox="0 0 36 36" version="1.1" xmlns="http://www.w3.org/2000/svg" xmlns:xlink="http://www.w3.org/1999/xlink">
    <title>编组 2</title>
    <g id="04.--BTFSscan-" stroke="none" stroke-width="1" fill="none" fill-rule="evenodd">
        <g id="home_light备份" transform="translate(-1446.000000, -539.000000)">
            <g id="编组-47" transform="translate(960.000000, 520.000000)">
                <g id="编组-28备份-2" transform="translate(421.000000, 20.000000)">
                    <g id="编组-2" transform="translate(66.000000, 0.000000)">
                        <circle id="椭圆形" stroke="#216C58" stroke-width="0.98" fill="#216C58" fill-rule="nonzero" cx="17" cy="17" r="17"></circle>
                        <path d="M32.7839796,17 C32.7839796,25.7182245 25.7164898,32.7857143 16.9982653,32.7857143 C8.28004082,32.7857143 1.21257704,25.7182245 1.21257704,17 C1.21257704,8.28177551 8.28004082,1.21431173 16.9982653,1.21431173 C25.7164898,1.21431173 32.7839796,8.28177551 32.7839796,17 Z" id="路径" fill="#216C58" fill-rule="nonzero"></path>
                        <rect id="矩形" fill="#216C58" fill-rule="nonzero" x="14.875" y="24.5903265" width="1.82142857" height="1.82142857"></rect>
                        <rect id="矩形" fill="#216C58" fill-rule="nonzero" x="17.9107143" y="24.5903265" width="1.82142857" height="1.82142857"></rect>
                        <rect id="矩形" fill="#FFFFFF" fill-rule="nonzero" x="11.231102" y="5.76788316" width="12.75" height="1.51785714" rx="0.758928571"></rect>
                        <path d="M16.9993061,7.89389796 L16.9993061,28.5367551 C16.9993061,28.8720714 16.7274796,29.143898 16.3921633,29.143898 L16.0885918,29.143898 C15.7532755,29.143898 15.481449,28.8720714 15.481449,28.5367551 L15.481449,7.89389796 L16.9993061,7.89389796 Z" id="路径" fill="#FFFFFF" fill-rule="nonzero"></path>
                        <path d="M19.4285714,7.89389796 L19.4285714,28.5367551 C19.4285714,28.8720714 19.1567449,29.143898 18.8214286,29.143898 L18.5178571,29.143898 C18.1825408,29.143898 17.9107143,28.8720714 17.9107143,28.5367551 L17.9107143,7.89389796 L19.4285714,7.89389796 Z" id="路径" fill="#FFFFFF" fill-rule="nonzero"></path>
                        <path d="M15.7040969,13.0316276 L15.7040969,13.0316276 L15.7072194,13.0305 C16.1291837,12.8761122 16.6617347,12.793801 17.3135459,12.793801 C18.2727449,12.793801 18.9944643,12.9777653 19.5076735,13.3141224 C19.8783776,13.5571531 20.1217551,13.8627194 20.2531582,14.2327296 C20.3849949,14.6036939 20.7248214,14.9634694 21.2017755,14.9634694 L24.0061684,14.9634694 C24.5036786,14.9634694 24.9534847,14.5459286 24.8774184,14.0015816 C24.7601531,13.1626837 24.443398,12.4055765 23.928801,11.7352908 C23.2851429,10.8967398 22.3904745,10.2516071 21.2603214,9.79260714 C20.1332041,9.33221939 18.824898,9.10644898 17.3422551,9.10644898 C15.8838112,9.10644898 14.5707347,9.33256633 13.4080561,9.79139286 C12.2473724,10.249352 11.3189643,10.8926633 10.6370561,11.7281786 L10.6370561,11.7281786 L10.636102,11.7293061 C9.95332653,12.5741888 9.61610204,13.5642653 9.62252041,14.6855714 C9.61610204,16.0596224 10.1285306,17.1733827 11.1611071,17.9946735 C12.1642806,18.7925459 13.5148265,19.3660357 15.1935765,19.7297143 C15.1939235,19.729801 15.1942704,19.7298878 15.1946173,19.7299745 L17.3237806,20.2059745 L17.3237806,20.2059745 L17.3262959,20.2065816 C18.030148,20.3575867 18.616301,20.5238571 19.088051,20.7039184 L19.0892653,20.704352 C19.5610153,20.8820714 19.8918214,21.0881531 20.1044949,21.3107143 L20.1044949,21.3107143 L20.1071837,21.3134031 C20.3097959,21.5202653 20.4122296,21.7717092 20.4122296,22.0879439 C20.4122296,22.4311531 20.2976531,22.731602 20.0586122,23.0011735 C19.8147143,23.2762092 19.4591888,23.5039745 18.9724337,23.6731071 L18.9713061,23.6734541 C18.4952194,23.8409388 17.9223367,23.9285408 17.2466735,23.9285408 C16.560949,23.9285408 15.9550204,23.8359949 15.4252449,23.6560204 C14.9075255,23.4724031 14.5060306,23.2077755 14.2082704,22.8683827 C14.0189286,22.6440867 13.8825816,22.3819745 13.8002704,22.0777959 C13.6911582,21.6741327 13.3396224,21.299352 12.8518265,21.299352 L10.0327755,21.299352 C9.52936735,21.299352 9.08927551,21.7208827 9.15137755,22.2589847 C9.27055102,23.2908673 9.61497449,24.1892653 10.1913265,24.9439439 L10.192801,24.945852 C10.8891071,25.842602 11.8502143,26.5113265 13.0605969,26.9588776 L13.0611173,26.959051 C14.2745357,27.405301 15.6877041,27.6243061 17.2944643,27.6243061 C18.9127602,27.6243061 20.3113571,27.4084235 21.4823622,26.9666837 L21.4831429,26.9664235 C22.6572704,26.5200867 23.57475,25.8865765 24.215199,25.0555714 C24.8642347,24.2159796 25.1889694,23.2256429 25.1957347,22.0982653 L25.1957347,22.0982653 L25.1957347,22.0937551 C25.1889694,21.3272806 25.0306786,20.635398 24.7127092,20.0257398 C24.405148,19.4237143 23.9719949,18.9028724 23.4178469,18.4635612 C22.8689898,18.0285867 22.2243776,17.6657755 21.4873929,17.3728724 C20.7551786,17.0817908 19.9542704,16.8502092 19.0855357,16.6769133 L17.3289847,16.3029133 L17.3289847,16.3029133 L17.3250816,16.3021327 C16.9088418,16.2192143 16.5189694,16.1199898 16.1552908,16.0048061 C15.7967296,15.8856327 15.4858724,15.7493724 15.2207245,15.5974133 C14.9663316,15.446148 14.7749949,15.273199 14.6380408,15.0816888 C14.5207755,14.9094337 14.4623163,14.7039592 14.4726378,14.4510408 L14.472898,14.4448827 L14.472898,14.4386378 C14.472898,14.1366276 14.5683061,13.8701786 14.7658878,13.6287092 C14.9711888,13.3857653 15.2768418,13.1828061 15.7040969,13.0316276 Z" id="路径" stroke="#216C58" stroke-width="0.98" fill="#FFFFFF" fill-rule="nonzero"></path>
                        <rect id="矩形" fill="#FFFFFF" fill-rule="nonzero" x="15.481449" y="11.8392857" width="1.51785714" height="2.125"></rect>
                        <rect id="矩形" fill="#FFFFFF" fill-rule="nonzero" x="15.481449" y="19.4287449" width="1.51785714" height="2.125"></rect>
                        <rect id="矩形" fill="#FFFFFF" fill-rule="nonzero" x="15.481449" y="25.8032245" width="1.51785714" height="2.125"></rect>
                        <rect id="矩形" fill="#FFFFFF" fill-rule="nonzero" x="17.9107143" y="11.8392857" width="1.51785714" height="2.125"></rect>
                        <rect id="矩形" fill="#FFFFFF" fill-rule="nonzero" x="17.9107143" y="19.4287449" width="1.51785714" height="2.125"></rect>
                        <rect id="矩形" fill="#FFFFFF" fill-rule="nonzero" x="17.9107143" y="25.8032245" width="1.51785714" height="2.125"></rect>
                        <path d="M32.2765816,17.9107143 C32.0353724,17.9107143 31.8364898,18.0995357 31.8150663,18.3398776 C31.1376684,25.9273418 24.7631888,31.875 16.9995663,31.875 C9.23594388,31.875 2.86143827,25.9273418 2.18408367,18.3398776 C2.16263418,18.0995357 1.96378622,17.9107143 1.72253367,17.9107143 C1.46041276,17.9107143 1.25165102,18.132148 1.27448827,18.3932194 C1.97980612,26.4589388 8.75083673,32.7857143 16.9995663,32.7857143 C25.2482959,32.7857143 32.0193265,26.4589388 32.7246531,18.3932194 C32.7474643,18.132148 32.5386939,17.9107143 32.2765816,17.9107143 Z M1.72253367,16.0892857 C1.96378622,16.0892857 2.16263418,15.9004643 2.18408367,15.6602092 C2.86143827,8.0727449 9.23594388,2.12502602 16.9995663,2.12502602 C24.7631888,2.12502602 31.1376684,8.0727449 31.8150663,15.6602092 C31.8364898,15.9004643 32.0353724,16.0892857 32.2765816,16.0892857 C32.5386939,16.0892857 32.7474643,15.8679388 32.7246531,15.6067806 C32.0193265,7.54114796 25.2482959,1.21431173 16.9995663,1.21431173 C8.75083673,1.21431173 1.97980612,7.54114796 1.27448827,15.6067806 C1.25165102,15.8679388 1.46041276,16.0892857 1.72253367,16.0892857 Z" id="形状" fill="#FFFFFF"></path>
                    </g>
                </g>
            </g>
        </g>
    </g>
</svg>