<?xml version="1.0" encoding="UTF-8"?>
<svg width="34px" height="34px" viewBox="0 0 34 34" version="1.1" xmlns="http://www.w3.org/2000/svg" xmlns:xlink="http://www.w3.org/1999/xlink">
    <title>usdt</title>
    <g id="04.--BTFSscan-" stroke="none" stroke-width="1" fill="none" fill-rule="evenodd">
        <g id="home_light备份" transform="translate(-1644.000000, -540.000000)" fill-rule="nonzero">
            <g id="编组-47" transform="translate(960.000000, 520.000000)">
                <g id="编组-28备份-3" transform="translate(618.000000, 20.000000)">
                    <g id="USDT" transform="translate(66.000000, 0.000000)">
                        <path d="M34,17 C34,26.3891 26.3891,34 17,34 C7.61124003,34 0,26.3891 0,17 C0,7.61107001 7.61123999,0 17,0 C26.3891,0 34,7.61107001 34,17" id="路径" fill="#1BA27A"></path>
                        <path d="M24.97861,8.57242 L24.97861,12.45862 L18.87306,12.45862 L18.8735153,15.0285083 C23.633834,15.2288877 27.2357,16.165687 27.2357,17.29121 C27.2357,18.41678 23.6334,19.35365 18.87289,19.55391 L18.87289,27.75046 L14.98703,27.75046 L14.98703,19.55068 C10.2629,19.34396 6.69783001,18.411 6.69783001,17.29121 C6.69783001,16.1714171 10.2633787,15.2384311 14.9876111,15.0316259 L14.98686,12.45862 L8.88131,12.45862 L8.88131,8.57242 L24.97861,8.57242 Z M18.8730856,15.2468794 L18.87306,18.17062 L14.98686,18.17062 L14.9871225,15.2499816 C10.8879845,15.4266151 7.82136,16.1402426 7.82136,16.99354 C7.82136,17.97971 11.91615,18.77905 16.96685,18.77905 C22.01755,18.77905 26.11217,17.97971 26.11217,16.99354 C26.11217,16.1351548 23.0088665,15.4181099 18.8730856,15.2468794 Z" id="形状结合" fill="#FFFFFF"></path>
                    </g>
                </g>
            </g>
        </g>
    </g>
</svg>