<?xml version="1.0" encoding="UTF-8"?>
<svg width="173px" height="186px" viewBox="0 0 173 186" version="1.1" xmlns="http://www.w3.org/2000/svg" xmlns:xlink="http://www.w3.org/1999/xlink">
    <title>形状</title>
    <defs>
        <linearGradient x1="50%" y1="9.97465999e-15%" x2="50%" y2="105.59576%" id="linearGradient-1">
            <stop stop-color="#FBB957" stop-opacity="0.291138549" offset="0%"></stop>
            <stop stop-color="#F8F6F1" stop-opacity="0.266581075" offset="100%"></stop>
        </linearGradient>
    </defs>
    <g id="03.-Dashboard新版" stroke="none" stroke-width="1" fill="none" fill-rule="evenodd" opacity="0.701623826">
        <g id="Dashboard" transform="translate(-1220.000000, -1048.000000)" fill="url(#linearGradient-1)" fill-rule="nonzero">
            <g id="形状" transform="translate(1220.000000, 1048.000000)">
                <path d="M0,172.8 L192,172.8 L192,192 L0,192 L0,172.8 Z M19.2000001,96 L38.4,96 L38.4,163.2 L19.2000001,163.2 L19.2000001,96 Z M67.2,96 L86.3999999,96 L86.3999999,163.2 L67.2,163.2 L67.2,96 Z M105.6,96 L124.8,96 L124.8,163.2 L105.6,163.2 L105.6,96 Z M153.6,96 L172.8,96 L172.8,163.2 L153.6,163.2 L153.6,96 Z M0,48 L96,0 L192,48 L192,86.3999999 L0,86.3999999 L0,48 Z M19.2000001,59.8656001 L19.2000001,67.2 L172.8,67.2 L172.8,59.8656001 L96,21.4656001 L19.2000001,59.8656001 Z M96,57.6000001 C92.5699003,57.6005251 89.4001328,55.7708903 87.6849313,52.8004243 C85.9697299,49.8299583 85.9697299,46.1700417 87.6849313,43.1995757 C89.4001328,40.2291097 92.5699003,38.3994749 96,38.3999999 C101.30136,38.4008116 105.59853,42.6986403 105.59853,48 C105.59853,53.3013597 101.30136,57.5991884 96,57.6000001 Z"></path>
            </g>
        </g>
    </g>
</svg>