<?xml version="1.0" encoding="UTF-8"?>
<svg width="35px" height="35px" viewBox="0 0 35 35" version="1.1" xmlns="http://www.w3.org/2000/svg" xmlns:xlink="http://www.w3.org/1999/xlink">
    <title>bittorrent-white备份</title>
    <g id="04.--BTFSscan-" stroke="none" stroke-width="1" fill="none" fill-rule="evenodd">
        <g id="home_light备份" transform="translate(-1221.000000, -563.000000)" fill="#CA2832">
            <g id="bittorrent-white备份" transform="translate(1221.249896, 563.249633)">
                <path d="M9.53299771,1.70601556 C13.9423196,-0.437725072 19.0766582,-0.570110023 23.5938458,1.35967476 C28.7679027,3.52304465 32.5332284,8.10515589 33.6471646,13.5917694 C34.1122695,15.848294 34.1181992,18.1751787 33.6611083,20.4508032 C33.1943947,22.6127739 32.3271796,24.6685859 31.096006,26.5244713 C29.2430143,29.2447525 26.6475996,31.377172 23.6093228,32.6723708 C20.4421969,33.9940417 16.9516059,34.3395468 13.5700159,33.661099 C11.4053251,33.1951982 9.34685984,32.3294653 7.48851093,31.1003511 C4.76422448,29.2501908 2.62847595,26.6585121 1.33114144,23.6243426 C0.00714015679,20.4611379 -0.338989013,16.9747183 0.336736701,13.6162144 C1.33051155,8.61580202 4.53065924,4.33028823 9.04612486,1.95248356 Z M22.6703722,3.54463955 C18.6342836,1.82041777 14.0343921,2.00661987 10.1513774,4.05138141 C6.26880158,6.09591186 3.5176047,9.78020812 2.66279748,14.0813551 C2.0800073,16.9779636 2.37828646,19.9824094 3.51576968,22.7000891 C4.63107607,25.3084603 6.47233706,27.5427856 8.80911446,29.1298827 C10.4090818,30.1880108 12.1930425,30.9382947 14.052841,31.3386937 C16.9547958,31.9208103 19.9648151,31.6228731 22.6874293,30.4867385 C25.3001383,29.3729243 27.5379732,27.5342961 29.1273856,25.2011212 C30.1869021,23.6038541 30.93813,21.8230003 31.3389153,19.9670169 C31.7298089,18.0204184 31.7246989,16.0152242 31.3231849,14.0671939 C30.3650173,9.34783017 27.1278319,5.40842494 22.6703722,3.54463955 Z M17.7800008,7.28360217 L17.7800008,9.43912422 L17.4066817,9.43912422 C14.636608,9.4916556 12.0230407,10.7315342 10.2324626,12.8425801 C8.80749263,14.5304896 8.02058792,16.6639912 8.00877928,18.871559 C7.98217264,21.8681045 9.30503077,24.7181006 11.6121201,26.6346798 C13.0473337,27.7840743 14.74062,28.5682699 16.5464247,28.9198573 C17.3417566,29.0981335 18.6077953,29.3088236 20.1659967,29.2602029 L19.7926776,29.3574445 L19.7764464,29.3574445 L19.6141337,29.3898583 L19.5816712,29.3898583 L19.2083521,29.470893 L19.0298082,29.5033069 L18.9973457,29.5033069 L18.8512643,29.5195138 L18.8188018,29.5195138 L18.6402579,29.5519276 L18.4454826,29.5681346 L18.4130201,29.5681346 L18.2507075,29.5843415 L18.2020137,29.5843415 L18.0559323,29.6005485 L18.0072385,29.6005485 L17.8286946,29.6167554 L17.8124633,29.6167554 L17.6176881,29.6329822 L16.9522063,29.6329822 C14.1258556,29.6379838 11.3805964,28.6900049 9.16119909,26.9426115 C8.07370433,25.9539886 7.3432974,24.6412271 6.93751579,23.7498457 C6.25569477,22.2514574 5.88572019,20.6304206 5.85002103,18.9850075 L5.85002103,18.5636273 L5.89871482,17.8505223 C6.03729424,16.3059643 6.49019506,14.8059112 7.22967856,13.4422366 C8.43484996,11.2297414 10.3095931,9.45424155 12.585996,8.36946663 C14.086634,7.68866773 15.7101045,7.3192478 17.3579879,7.28360217 L17.7800008,7.28360217 Z M20.6204722,10.4925748 L21.4482667,10.8005065 L20.5393158,12.7291315 C17.9643165,11.6398678 14.988122,12.1707683 12.9501288,14.0829083 C10.9121357,15.9950483 10.19646,18.9280322 11.1251821,21.5619098 C12.1802144,24.6412271 15.0531483,26.6833006 18.3967889,27.2829571 C19.1109645,27.4126125 20.0361466,27.5260611 20.7827848,27.542268 C22.0488235,27.5746819 22.5032989,27.5908888 24.2887381,27.2667501 L24.1588879,27.3639917 L23.2823996,27.9150274 C22.9740056,28.0933037 22.6656116,28.2391661 22.3572175,28.3850285 L21.0587163,28.8874434 C20.2958469,28.8874434 18.9973457,28.8550295 18.0234698,28.7253741 C16.5940067,28.5770188 15.2000402,28.1879509 13.9007285,27.5746819 C12.8408723,27.0386632 11.8802885,26.3261564 11.0602571,25.4677806 C8.90137706,23.1568145 8.0911622,19.8962983 8.91773011,16.8456924 C9.68943501,13.8598601 11.9366554,11.4753857 14.8746044,10.5249887 C16.7414196,9.92717893 18.7470113,9.91586489 20.6204722,10.4925748 Z M23.736875,16.229829 L21.8053545,17.186038 C20.8158622,15.423794 18.7597665,14.5505732 16.8021037,15.061165 C14.8444409,15.5717567 13.4786881,17.3374537 13.4787156,19.357767 C13.4787156,21.8212208 15.6861676,23.8146735 18.0234698,24.5926063 C19.5329774,25.0950212 21.3021853,25.2246766 22.7467679,25.2246766 C23.5583311,25.2246766 24.2725068,25.1760558 24.775676,25.143642 L26.8370466,24.9491588 C26.2626406,25.6632531 25.6092429,26.3102345 24.8892948,26.8777838 C22.3930984,27.380674 19.8135622,27.2918578 17.3579879,26.6184728 C15.821325,26.1078033 14.4335792,25.2285456 13.3164029,24.0577775 C12.7158461,23.4095002 12.2451394,22.7126021 11.9042829,21.9670832 C11.5334195,21.1411085 11.3399013,20.2467385 11.3360444,19.3415601 C11.3186044,16.6917237 12.9101005,14.2952428 15.3615423,13.2801673 C18.4961576,11.9219913 22.149267,13.2085596 23.736875,16.229829 Z" id="形状结合"></path>
            </g>
        </g>
    </g>
</svg>