<?xml version="1.0" encoding="UTF-8"?>
<svg width="40px" height="40px" viewBox="0 0 40 40" version="1.1" xmlns="http://www.w3.org/2000/svg" xmlns:xlink="http://www.w3.org/1999/xlink">
    <title>形状结合</title>
    <g id="03.-Dashboard" stroke="none" stroke-width="1" fill="none" fill-rule="evenodd">
        <g id="Welcome-to-BTFS-2.0" transform="translate(-1254.000000, -54.000000)" fill="#5A607F" fill-rule="nonzero">
            <path d="M1274,54 C1285.04569,54 1294,62.954305 1294,74 C1294,85.045695 1285.04569,94 1274,94 C1262.95431,94 1254,85.045695 1254,74 C1254,62.954305 1262.95431,54 1274,54 Z M1274,55.5 C1263.78273,55.5 1255.5,63.7827321 1255.5,74 C1255.5,84.2172679 1263.78273,92.5 1274,92.5 C1284.21727,92.5 1292.5,84.2172679 1292.5,74 C1292.5,63.7827321 1284.21727,55.5 1274,55.5 Z M1272.88432,66 L1275.24165,66.0888889 L1275.24165,68.8977778 L1281,68.8977778 L1281,77.04 L1275.24165,77.04 L1275.24165,82 L1272.88432,82 L1272.88432,77.04 L1267,77.04 L1267,68.8977778 L1272.88432,68.8977778 L1272.88432,66 Z M1272.88432,71.1555556 L1269.39332,71.1555556 L1269.39332,74.8 L1272.88432,74.8 L1272.88432,71.1555556 Z M1278.62468,71.1555556 L1275.24165,71.1555556 L1275.24165,74.8 L1278.62468,74.8 L1278.62468,71.1555556 Z" id="形状结合"></path>
        </g>
    </g>
</svg>