<?xml version="1.0" encoding="UTF-8"?>
<svg width="21px" height="20px" viewBox="0 0 21 20" version="1.1" xmlns="http://www.w3.org/2000/svg" xmlns:xlink="http://www.w3.org/1999/xlink">
    <title>s3-bucket-icon</title>
    <g id="03.-Dashboard" stroke="none" stroke-width="1" fill="none" fill-rule="evenodd">
        <g id="Files" transform="translate(-324.000000, -652.000000)" fill="#333333" fill-rule="nonzero">
            <g id="s3-bucket-icon" transform="translate(324.000000, 652.000000)">
                <path d="M20,11 C20.5522847,11 21,11.4477153 21,12 L21,19 C21,19.5522847 20.5522847,20 20,20 L1,20 C0.44771525,20 0,19.5522847 0,19 L0,12 C0,11.4477153 0.44771525,11 1,11 Z M5,14.5 C4.44771525,14.5 4,14.9477153 4,15.5 C4,16.0522847 4.44771525,16.5 5,16.5 C5.55228475,16.5 6,16.0522847 6,15.5 C6,14.9477153 5.55228475,14.5 5,14.5 Z M9,14.5 C8.44771525,14.5 8,14.9477153 8,15.5 C8,16.0522847 8.44771525,16.5 9,16.5 C9.55228475,16.5 10,16.0522847 10,15.5 C10,14.9477153 9.55228475,14.5 9,14.5 Z M16,14.5 L14,14.5 L13.8833789,14.5067277 C13.3860402,14.5644928 13,14.9871642 13,15.5 C13,16.0522847 13.4477153,16.5 14,16.5 L16,16.5 L16.1166211,16.4932723 C16.6139598,16.4355072 17,16.0128358 17,15.5 C17,14.9477153 16.5522847,14.5 16,14.5 Z M20,0 C20.5522847,0 21,0.44771525 21,1 L21,8 C21,8.55228475 20.5522847,9 20,9 L1,9 C0.44771525,9 0,8.55228475 0,8 L0,1 C0,0.44771525 0.44771525,0 1,0 Z M5,3.5 C4.44771525,3.5 4,3.94771525 4,4.5 C4,5.05228475 4.44771525,5.5 5,5.5 C5.55228475,5.5 6,5.05228475 6,4.5 C6,3.94771525 5.55228475,3.5 5,3.5 Z M9,3.5 C8.44771525,3.5 8,3.94771525 8,4.5 C8,5.05228475 8.44771525,5.5 9,5.5 C9.55228475,5.5 10,5.05228475 10,4.5 C10,3.94771525 9.55228475,3.5 9,3.5 Z M16,3.5 L14,3.5 L13.8833789,3.50672773 C13.3860402,3.56449284 13,3.98716416 13,4.5 C13,5.05228475 13.4477153,5.5 14,5.5 L16,5.5 L16.1166211,5.49327227 C16.6139598,5.43550716 17,5.01283584 17,4.5 C17,3.94771525 16.5522847,3.5 16,3.5 Z" id="形状结合"></path>
            </g>
        </g>
    </g>
</svg>