<?xml version="1.0" encoding="UTF-8"?>
<svg width="15px" height="15px" viewBox="0 0 15 15" version="1.1" xmlns="http://www.w3.org/2000/svg" xmlns:xlink="http://www.w3.org/1999/xlink">
    <title>key</title>
    <g id="03.-Dashboard" stroke="none" stroke-width="1" fill="none" fill-rule="evenodd">
        <g id="Files" transform="translate(-323.000000, -545.000000)" fill="#000000" fill-rule="nonzero">
            <g id="key" transform="translate(323.000000, 545.000000)">
                <path d="M4.58312556,15 C2.05188681,14.9998347 0,12.9478549 0,10.4166667 C0,7.88547839 2.05188681,5.83349856 4.58312556,5.83333333 L4.58812566,5.83333333 C5.22003781,5.83308372 5.84484926,5.9665635 6.42149555,6.22499999 L12.4082816,0.24166666 C12.563902,0.0883155319 12.7731488,0.00162926898 12.9916266,0 L14.16665,0 C14.6268965,0 15,0.373096044 15,0.833333338 L15,2.91666665 C15,3.02717353 14.9561004,3.13315433 14.8779587,3.21129449 C14.799817,3.28943465 14.6938341,3.33333333 14.583325,3.33333333 L13.0249606,3.33333333 C12.9052661,3.34190607 12.7954683,3.40290359 12.7249546,3.5 L12.6832871,3.5 C12.5664259,3.61735492 12.5005498,3.77605317 12.4999501,3.94166665 L12.4999501,5.40833333 C12.4999501,5.63845197 12.3133984,5.82499999 12.0832752,5.82499999 L10.5999122,5.82499999 C10.4341679,5.82496237 10.2752328,5.8909341 10.1582368,6.00833333 L9.94239912,6.22499999 C9.82530764,6.34220117 9.75939037,6.50099867 9.75906212,6.66666665 L9.75906212,7.26666665 C9.75743283,7.48514006 9.67074483,7.69438277 9.51739064,7.84999999 L8.78404267,8.58249998 C9.40285204,9.99957515 9.26540518,11.6331353 8.41850793,12.9268916 C7.57161067,14.220648 6.12944608,15.0001696 4.58312556,15 L4.58312556,15 Z M3.6997746,9.63333332 C2.77928166,9.63333332 2.0330747,10.3795254 2.0330747,11.3 C2.0330747,12.2204746 2.77928166,12.9666666 3.6997746,12.9666666 C4.62026754,12.9666666 5.36647451,12.2204746 5.36647451,11.3 C5.36647451,10.3795254 4.62026754,9.63333332 3.6997746,9.63333332 L3.6997746,9.63333332 Z" id="形状"></path>
            </g>
        </g>
    </g>
</svg>