<?xml version="1.0" encoding="UTF-8"?>
<svg width="12px" height="12px" viewBox="0 0 12 12" version="1.1" xmlns="http://www.w3.org/2000/svg" xmlns:xlink="http://www.w3.org/1999/xlink">
    <title>jinggao-</title>
    <g id="03.-Dashboard" stroke="none" stroke-width="1" fill="none" fill-rule="evenodd">
        <g id="Files" transform="translate(-330.000000, -494.000000)" fill="#787C7E" fill-rule="nonzero">
            <g id="编组-6" transform="translate(320.000000, 482.000000)">
                <g id="jinggao-" transform="translate(10.000000, 12.000000)">
                    <path d="M5.45454081,5.45454081 L5.45454081,9.2727296 C5.45454081,9.57397839 5.69875121,9.81818879 6,9.81818879 C6.30124879,9.81818879 6.54545919,9.57397839 6.54545919,9.2727296 L6.54545919,5.45454081 C6.54545919,5.15329201 6.30124879,4.90908161 6,4.90908161 C5.69875121,4.90908161 5.45454081,5.15329201 5.45454081,5.45454081 L5.45454081,5.45454081 Z M6,3.81817601 C6.45186966,3.81817601 6.8181824,3.45186327 6.8181824,2.99999361 C6.8181824,2.54812395 6.45186966,2.18181121 6,2.18181121 C5.54813034,2.18181121 5.1818176,2.54812395 5.1818176,2.99999361 C5.1818176,3.45186327 5.54813034,3.81817601 6,3.81817601 Z M6,12 C2.6862915,12 1.16270712e-16,9.3137085 1.16270712e-16,6 C1.16270712e-16,2.6862915 2.6862915,1.16270712e-16 6,1.16270712e-16 C9.3137085,1.16270712e-16 12,2.6862915 12,6 C12,7.59129894 11.367859,9.11742242 10.2426407,10.2426407 C9.11742242,11.367859 7.59129894,12 6,12 Z" id="形状"></path>
                </g>
            </g>
        </g>
    </g>
</svg>